/* XPM */
static const char * gbcf_xpm[] = {
"24 24 284 2",
"  	c None",
". 	c #515B6C",
"+ 	c #D2CFBC",
"@ 	c #CDCFB3",
"# 	c #D2D6B6",
"$ 	c #C7CBB1",
"% 	c #C6C1A9",
"& 	c #C6BFA0",
"* 	c #BCBC9A",
"= 	c #B7BA9E",
"- 	c #B0B49A",
"; 	c #B1BFAC",
"> 	c #242E34",
", 	c #9BB7B3",
"' 	c #43808F",
") 	c #446B7C",
"! 	c #4B707A",
"~ 	c #60858C",
"{ 	c #6E9296",
"] 	c #81A2A3",
"^ 	c #A3B5B5",
"/ 	c #B5C5B9",
"( 	c #95AEA1",
"_ 	c #F3F4E0",
": 	c #907660",
"< 	c #8F9BA0",
"[ 	c #4A8698",
"} 	c #0E5A6C",
"| 	c #5A3015",
"1 	c #753D15",
"2 	c #5C3713",
"3 	c #59341B",
"4 	c #4A301A",
"5 	c #182B2C",
"6 	c #00315B",
"7 	c #003A57",
"8 	c #90A79B",
"9 	c #CA4D28",
"0 	c #67777C",
"a 	c #5C7D82",
"b 	c #134A70",
"c 	c #574833",
"d 	c #D67322",
"e 	c #E58E34",
"f 	c #E29431",
"g 	c #E58F32",
"h 	c #E28326",
"i 	c #555A47",
"j 	c #003460",
"k 	c #729894",
"l 	c #BF9A74",
"m 	c #EE4413",
"n 	c #5B4849",
"o 	c #676E65",
"p 	c #97B5B5",
"q 	c #175C83",
"r 	c #26383B",
"s 	c #A85B1B",
"t 	c #C88930",
"u 	c #CF932E",
"v 	c #D8A037",
"w 	c #E1A734",
"x 	c #867435",
"y 	c #002E62",
"z 	c #214465",
"A 	c #A2B7A5",
"B 	c #D25A2F",
"C 	c #EA6630",
"D 	c #464E4F",
"E 	c #8DAFAC",
"F 	c #035F77",
"G 	c #1B5359",
"H 	c #8A4D16",
"I 	c #DE8F30",
"J 	c #E3A235",
"K 	c #FBBE3E",
"L 	c #FFD245",
"M 	c #E0BE40",
"N 	c #335446",
"O 	c #001F46",
"P 	c #7E999B",
"Q 	c #BF977A",
"R 	c #F5571B",
"S 	c #994D2B",
"T 	c #465765",
"U 	c #D3D7C5",
"V 	c #64898B",
"W 	c #256D7E",
"X 	c #153C4F",
"Y 	c #54492B",
"Z 	c #735D29",
"` 	c #A67A29",
" .	c #CBA73A",
"..	c #E2CE42",
"+.	c #667148",
"@.	c #000D51",
"#.	c #5B6A72",
"$.	c #CDC8B0",
"%.	c #C34E25",
"&.	c #FF7E3F",
"*.	c #3A3638",
"=.	c #D4DAB7",
"-.	c #F8F5C4",
";.	c #BABBB9",
">.	c #B9B9B1",
",.	c #C4C9B7",
"'.	c #84A1A4",
").	c #69878D",
"!.	c #4A716E",
"~.	c #3F5B60",
"{.	c #405D5A",
"].	c #304B5E",
"^.	c #6C6E7C",
"/.	c #EBE3C1",
"(.	c #B67655",
"_.	c #FF6225",
":.	c #A05C3B",
"<.	c #C2C3AE",
"[.	c #797EAF",
"}.	c #393A9D",
"|.	c #0A0A8A",
"1.	c #536693",
"2.	c #FBF5C5",
"3.	c #FDF5C7",
"4.	c #FFF3CA",
"5.	c #FEF0C7",
"6.	c #E7E8C0",
"7.	c #DDD8BC",
"8.	c #F0D2A9",
"9.	c #FFEBB9",
"0.	c #CBB188",
"a.	c #D1491B",
"b.	c #FF7E38",
"c.	c #514444",
"d.	c #CACFBD",
"e.	c #FCF6D4",
"f.	c #4A578D",
"g.	c #000076",
"h.	c #1C1B7B",
"i.	c #3D4572",
"j.	c #E1D4AF",
"k.	c #FBE1B9",
"l.	c #E6D9AD",
"m.	c #E2DAB7",
"n.	c #C3697A",
"o.	c #D48B7B",
"p.	c #FFDAAB",
"q.	c #E7BC9B",
"r.	c #B7643C",
"s.	c #FF742C",
"t.	c #B57B57",
"u.	c #303A3E",
"v.	c #E1E5C7",
"w.	c #F6EEC5",
"x.	c #FFEEC6",
"y.	c #ABACA2",
"z.	c #727682",
"A.	c #E4D2AE",
"B.	c #EBD8AA",
"C.	c #FFDDAE",
"D.	c #EBD5A9",
"E.	c #BB5C76",
"F.	c #A86263",
"G.	c #AB4748",
"H.	c #C16452",
"I.	c #FFD896",
"J.	c #C48462",
"K.	c #E16C1C",
"L.	c #FFAD70",
"M.	c #392833",
"N.	c #535550",
"O.	c #F9F7D4",
"P.	c #FCEBC1",
"Q.	c #FCDDB9",
"R.	c #FDDBBA",
"S.	c #FDDEB9",
"T.	c #FFE1B4",
"U.	c #FFD9A5",
"V.	c #FED7A0",
"W.	c #FFC69F",
"X.	c #EEC59A",
"Y.	c #B54753",
"Z.	c #C97459",
"`.	c #E2C281",
" +	c #FCBA80",
".+	c #DDA46E",
"++	c #BD6329",
"@+	c #FFA657",
"#+	c #9F7463",
"$+	c #0F1443",
"%+	c #C3C9BD",
"&+	c #EDCEAB",
"*+	c #F1CCA8",
"=+	c #FFD8A2",
"-+	c #FFD4A0",
";+	c #FCCFA4",
">+	c #A19A96",
",+	c #8C9690",
"'+	c #CAAB90",
")+	c #FCB98A",
"!+	c #FAB986",
"~+	c #D8B670",
"{+	c #D9A972",
"]+	c #FFAF6E",
"^+	c #F3A46C",
"/+	c #C17740",
"(+	c #F1853B",
"_+	c #FFB290",
":+	c #484047",
"<+	c #ADBBC6",
"[+	c #CAD3D7",
"}+	c #C0C6BE",
"|+	c #CEBEA9",
"1+	c #DCB493",
"2+	c #E1AF78",
"3+	c #E0A87B",
"4+	c #D09E7A",
"5+	c #DEAA79",
"6+	c #FFB679",
"7+	c #877D77",
"8+	c #4C6278",
"9+	c #666772",
"0+	c #DC944A",
"a+	c #C78656",
"b+	c #D58A5A",
"c+	c #FFB77D",
"d+	c #94685D",
"e+	c #C8D3E0",
"f+	c #FFFFFF",
"g+	c #EBF2F6",
"h+	c #D5E2EB",
"i+	c #CDD8DE",
"j+	c #D8D0CF",
"k+	c #CDB8AA",
"l+	c #D9A885",
"m+	c #D69770",
"n+	c #F49858",
"o+	c #917055",
"p+	c #4B515B",
"q+	c #8E6B52",
"r+	c #B2876E",
"s+	c #E2A180",
"t+	c #FAA579",
"u+	c #F0A784",
"v+	c #3A4B67",
"w+	c #EDF2F8",
"x+	c #FFFFFE",
"y+	c #FEFFFF",
"z+	c #AEC2DA",
"A+	c #DFEAF4",
"B+	c #E0ECF3",
"C+	c #D0D7E1",
"D+	c #C3C2BB",
"E+	c #B7B1A7",
"F+	c #B8B3AC",
"G+	c #D5CDBC",
"H+	c #F2D5C3",
"I+	c #F3AA8A",
"J+	c #FFBE91",
"K+	c #674F4E",
"L+	c #495369",
"M+	c #9EABC0",
"N+	c #D8E1EA",
"O+	c #D8E5F2",
"P+	c #FEFEFD",
"Q+	c #FEFEFF",
"R+	c #FFFFFC",
"S+	c #F9EAD6",
"T+	c #FFE2C0",
"U+	c #8C6F67",
"V+	c #4D5A75",
"W+	c #9AA9BC",
"X+	c #B7C1CE",
"Y+	c #DDE6ED",
"Z+	c #F9FAFC",
"`+	c #FFFEFC",
" @	c #FEFFFD",
".@	c #F9F9F4",
"+@	c #DEDFD6",
"@@	c #6C736D",
"#@	c #75859D",
"$@	c #919EAF",
"%@	c #969EAD",
"&@	c #8597A8",
"                                                ",
"                                                ",
"                                                ",
"                      . + @ # $ % & * = - ; >   ",
"                      , ' ) ! ~ { ] ^ / ( _ :   ",
"                    < [ } | 1 2 3 4 5 6 7 8 9   ",
"                  0 a b c d e f g h i j k l m n ",
"                o p q r s t u v w x y z A B C   ",
"              D E F G H I J K L M N O P Q R S   ",
"            T U V W X Y Z `  ...+.@.#.$.%.&.*.  ",
"            =.-.;.>.,.'.).!.~.{.].^./.(._.:.    ",
"          <.[.}.|.1.2.3.4.5.6.7.8.9.0.a.b.c.    ",
"        d.e.f.g.h.i.j.k.l.m.n.o.p.q.r.s.t.      ",
"    u.v.w.x.y.z.A.B.C.D.E.F.G.H.I.J.K.L.M.      ",
"  N.O.P.Q.R.S.T.U.V.W.X.Y.Z.`. +.+++@+#+        ",
"$+%+&+*+=+-+;+>+,+'+)+!+~+{+]+^+/+(+_+:+        ",
"  <+[+}+|+1+2+3+4+5+6+7+8+9+0+a+b+c+d+          ",
"  e+f+g+h+i+j+k+l+m+n+o+p+q+r+s+t+u+            ",
"  v+w+x+y+f+z+A+B+C+D+E+F+G+H+I+J+K+            ",
"      L+M+N+O+P+f+f+y+y+Q+R+S+T+U+              ",
"            V+W+X+Y+Z+`+ @.@+@@@                ",
"                    #@$@%@&@                    ",
"                                                ",
"                                                "};
